<?xml version="1.0" encoding="utf-8"?>
<!-- Generator: Adobe Illustrator 26.0.1, SVG Export Plug-In . SVG Version: 6.00 Build 0)  -->
<svg version="1.1" id="Слой_1" xmlns="http://www.w3.org/2000/svg" xmlns:xlink="http://www.w3.org/1999/xlink" x="0px" y="0px"
	 viewBox="0 0 480.94 311.66" style="enable-background:new 0 0 480.94 311.66;" xml:space="preserve">
<g>
	<rect x="15.19" y="156.27" transform="matrix(0.8658 -0.5003 0.5003 0.8658 -48.1961 138.6121)" width="438.33" height="5.8"/>
	<g>
		<polygon points="51.21,275.2 33.86,275.21 42.52,260.17 		"/>
	</g>
	<g>
		<polygon points="426.18,58.17 434.85,43.13 417.49,43.15 		"/>
	</g>
</g>
<path d="M456.53,311.66H24.42C10.95,311.66,0,300.71,0,287.24V24.42C0,10.95,10.95,0,24.42,0h432.11
	c13.46,0,24.42,10.95,24.42,24.42v262.83C480.94,300.71,469.99,311.66,456.53,311.66z M24.42,17.41c-3.86,0-7.01,3.14-7.01,7.01
	v262.83c0,3.86,3.14,7.01,7.01,7.01h432.11c3.86,0,7.01-3.14,7.01-7.01V24.42c0-3.86-3.14-7.01-7.01-7.01H24.42z"/>
</svg>
