<svg xmlns="http://www.w3.org/2000/svg" viewBox="0 0 82.89 53.71"><defs><style>.cls-1{fill:#1d1d1b;}</style></defs><g id="Слой_2" data-name="Слой 2"><g id="Слой_1-2" data-name="Слой 1"><path class="cls-1" d="M78.68,53.71H4.21A4.21,4.21,0,0,1,0,49.51V4.21A4.22,4.22,0,0,1,4.21,0H78.68a4.22,4.22,0,0,1,4.21,4.21v45.3A4.21,4.21,0,0,1,78.68,53.71ZM4.21,3A1.21,1.21,0,0,0,3,4.21v45.3a1.21,1.21,0,0,0,1.21,1.2H78.68a1.21,1.21,0,0,0,1.21-1.2V4.21A1.21,1.21,0,0,0,78.68,3Z"/><circle cx="22.09" cy="11.11" r="1.5"/><circle cx="22.09" cy="42.75" r="1.5"/><circle cx="60.98" cy="42.75" r="1.5"/><circle cx="60.98" cy="11.11" r="1.5"/><path d="M61.48,34.58h-1v-1h1Zm0-2h-1v-1h1Zm0-2h-1v-1h1Zm0-2h-1v-1h1Zm0,12h-1v-1h1Zm0-2h-1v-1h1Zm0-2h-1v-1h1Zm0-2h-1v-1h1Zm0-8h-1v-1h1Zm0,0h-1v-1h1Zm0-2h-1v-1h1Zm0,0h-1v-1h1Zm0,2h-1v-1h1Zm0-2h-1v-1h1Zm0,0h-1v-1h1Zm0,2h-1v-1h1Zm0-2h-1v-1h1Zm0,0h-1v-1h1Zm0,0h-1v-1h1Zm0,0h-1v-1h1Zm0-2h-1v-1h1Zm0-2h-1v-1h1Zm0,0h-1v-1h1Zm0,0h-1v-1h1Zm0,0h-1v-1h1Zm0,0h-1v-1h1Zm0,0h-1v-1h1Zm0,0h-1v-1h1Zm0,0h-1v-1h1Zm0,0h-1v-1h1Zm0-2h-1v-1h1Zm0-2h-1v-1h1Zm0,0h-1v-1h1Zm0-2h-1v-1h1Z"/><path d="M22.58,34.58h-1v-1h1Zm0-2h-1v-1h1Zm0-2h-1v-1h1Zm0-2h-1v-1h1Zm0,12h-1v-1h1Zm0-2h-1v-1h1Zm0-2h-1v-1h1Zm0-2h-1v-1h1Zm0-8h-1v-1h1Zm0,0h-1v-1h1Zm0-2h-1v-1h1Zm0,0h-1v-1h1Zm0,2h-1v-1h1Zm0-2h-1v-1h1Zm0,0h-1v-1h1Zm0,2h-1v-1h1Zm0-2h-1v-1h1Zm0,0h-1v-1h1Zm0,0h-1v-1h1Zm0,0h-1v-1h1Zm0-2h-1v-1h1Zm0-2h-1v-1h1Zm0,0h-1v-1h1Zm0,0h-1v-1h1Zm0,0h-1v-1h1Zm0,0h-1v-1h1Zm0,0h-1v-1h1Zm0,0h-1v-1h1Zm0,0h-1v-1h1Zm0,0h-1v-1h1Zm0-2h-1v-1h1Zm0-2h-1v-1h1Zm0,0h-1v-1h1Zm0-2h-1v-1h1Z"/><path d="M29.19,11.61v-1h1v1Zm2,0v-1h1v1Zm2,0v-1h1v1Zm2,0v-1h1v1Zm-10,0v-1h1v1Zm2,0v-1h1v1Zm2,0v-1h1v1Zm2,0v-1h1v1Zm6,0v-1h1v1Zm0,0v-1h1v1Zm2,0v-1h1v1Zm0,0v-1h1v1Zm-2,0v-1h1v1Zm2,0v-1h1v1Zm0,0v-1h1v1Zm-2,0v-1h1v1Zm2,0v-1h1v1Zm0,0v-1h1v1Zm0,0v-1h1v1Zm0,0v-1h1v1Zm0,0v-1h1v1Zm2,0v-1h1v1Zm2,0v-1h1v1Zm0,0v-1h1v1Zm2,0v-1h1v1Zm0,0v-1h1v1Zm-2,0v-1h1v1Zm2,0v-1h1v1Zm0,0v-1h1v1Zm-2,0v-1h1v1Zm2,0v-1h1v1Zm0,0v-1h1v1Zm0,0v-1h1v1Zm0,0v-1h1v1Zm0,0v-1h1v1Zm0,0v-1h1v1Zm2,0v-1h1v1Zm0,0v-1h1v1Zm-2,0v-1h1v1Zm2,0v-1h1v1Zm0,0v-1h1v1Zm-2,0v-1h1v1Zm2,0v-1h1v1Zm0,0v-1h1v1Zm0,0v-1h1v1Zm0,0v-1h1v1Zm0,0v-1h1v1Zm0,0v-1h1v1Zm0,0v-1h1v1Zm0,0v-1h1v1Zm0,0v-1h1v1Zm0,0v-1h1v1Zm0,0v-1h1v1Zm0,0v-1h1v1Zm0,0v-1h1v1Zm0,0v-1h1v1Zm2,0v-1h1v1Zm0,0v-1h1v1Zm-2,0v-1h1v1Zm2,0v-1h1v1Zm0,0v-1h1v1Zm-2,0v-1h1v1Zm2,0v-1h1v1Zm0,0v-1h1v1Zm0,0v-1h1v1Zm0,0v-1h1v1Zm2,0v-1h1v1Zm0,0v-1h1v1Zm0,0v-1h1v1Zm0,0v-1h1v1Zm0,0v-1h1v1Zm0,0v-1h1v1Zm0,0v-1h1v1Zm0,0v-1h1v1Zm0,0v-1h1v1Zm0,0v-1h1v1Zm0,0v-1h1v1Zm2,0v-1h1v1Zm0,0v-1h1v1Zm-2,0v-1h1v1Zm2,0v-1h1v1Zm0,0v-1h1v1Zm-2,0v-1h1v1Zm2,0v-1h1v1Zm0,0v-1h1v1Zm0,0v-1h1v1Zm0,0v-1h1v1Zm0,0v-1h1v1Zm0,0v-1h1v1Zm0,0v-1h1v1Zm0,0v-1h1v1Zm0,0v-1h1v1Zm0,0v-1h1v1Zm0,0v-1h1v1Zm0,0v-1h1v1Zm0,0v-1h1v1Zm0,0v-1h1v1Zm2,0v-1h1v1Zm0,0v-1h1v1Zm-2,0v-1h1v1Zm2,0v-1h1v1Zm0,0v-1h1v1Zm-2,0v-1h1v1Zm2,0v-1h1v1Zm0,0v-1h1v1Zm0,0v-1h1v1Zm0,0v-1h1v1Zm2,0v-1h1v1Z"/><path d="M29.19,43.25v-1h1v1Zm2,0v-1h1v1Zm2,0v-1h1v1Zm2,0v-1h1v1Zm-10,0v-1h1v1Zm2,0v-1h1v1Zm2,0v-1h1v1Zm2,0v-1h1v1Zm6,0v-1h1v1Zm0,0v-1h1v1Zm2,0v-1h1v1Zm0,0v-1h1v1Zm-2,0v-1h1v1Zm2,0v-1h1v1Zm0,0v-1h1v1Zm-2,0v-1h1v1Zm2,0v-1h1v1Zm0,0v-1h1v1Zm0,0v-1h1v1Zm0,0v-1h1v1Zm0,0v-1h1v1Zm2,0v-1h1v1Zm2,0v-1h1v1Zm0,0v-1h1v1Zm2,0v-1h1v1Zm0,0v-1h1v1Zm-2,0v-1h1v1Zm2,0v-1h1v1Zm0,0v-1h1v1Zm-2,0v-1h1v1Zm2,0v-1h1v1Zm0,0v-1h1v1Zm0,0v-1h1v1Zm0,0v-1h1v1Zm0,0v-1h1v1Zm0,0v-1h1v1Zm2,0v-1h1v1Zm0,0v-1h1v1Zm-2,0v-1h1v1Zm2,0v-1h1v1Zm0,0v-1h1v1Zm-2,0v-1h1v1Zm2,0v-1h1v1Zm0,0v-1h1v1Zm0,0v-1h1v1Zm0,0v-1h1v1Zm0,0v-1h1v1Zm0,0v-1h1v1Zm0,0v-1h1v1Zm0,0v-1h1v1Zm0,0v-1h1v1Zm0,0v-1h1v1Zm0,0v-1h1v1Zm0,0v-1h1v1Zm0,0v-1h1v1Zm0,0v-1h1v1Zm2,0v-1h1v1Zm0,0v-1h1v1Zm-2,0v-1h1v1Zm2,0v-1h1v1Zm0,0v-1h1v1Zm-2,0v-1h1v1Zm2,0v-1h1v1Zm0,0v-1h1v1Zm0,0v-1h1v1Zm0,0v-1h1v1Zm2,0v-1h1v1Zm0,0v-1h1v1Zm0,0v-1h1v1Zm0,0v-1h1v1Zm0,0v-1h1v1Zm0,0v-1h1v1Zm0,0v-1h1v1Zm0,0v-1h1v1Zm0,0v-1h1v1Zm0,0v-1h1v1Zm0,0v-1h1v1Zm2,0v-1h1v1Zm0,0v-1h1v1Zm-2,0v-1h1v1Zm2,0v-1h1v1Zm0,0v-1h1v1Zm-2,0v-1h1v1Zm2,0v-1h1v1Zm0,0v-1h1v1Zm0,0v-1h1v1Zm0,0v-1h1v1Zm0,0v-1h1v1Zm0,0v-1h1v1Zm0,0v-1h1v1Zm0,0v-1h1v1Zm0,0v-1h1v1Zm0,0v-1h1v1Zm0,0v-1h1v1Zm0,0v-1h1v1Zm0,0v-1h1v1Zm0,0v-1h1v1Zm2,0v-1h1v1Zm0,0v-1h1v1Zm-2,0v-1h1v1Zm2,0v-1h1v1Zm0,0v-1h1v1Zm-2,0v-1h1v1Zm2,0v-1h1v1Zm0,0v-1h1v1Zm0,0v-1h1v1Zm0,0v-1h1v1Zm2,0v-1h1v1Z"/></g></g></svg>