<svg xmlns="http://www.w3.org/2000/svg" viewBox="0 0 82.89 75.53"><g id="Слой_2" data-name="Слой 2"><g id="Слой_1-2" data-name="Слой 1"><path d="M78.68,65.26H4.21A4.22,4.22,0,0,1,0,61.05V15.75a4.22,4.22,0,0,1,4.21-4.21H78.68a4.22,4.22,0,0,1,4.21,4.21v45.3A4.22,4.22,0,0,1,78.68,65.26ZM4.21,14.54A1.21,1.21,0,0,0,3,15.75v45.3a1.21,1.21,0,0,0,1.21,1.21H78.68a1.21,1.21,0,0,0,1.21-1.21V15.75a1.21,1.21,0,0,0-1.21-1.21Z"/><rect x="40.95" y="4.39" width="1" height="1"/><rect x="40.95" y="2.39" width="1" height="1"/><polygon points="41.44 0 39.95 2.59 42.94 2.59 41.44 0"/><rect x="40.95" y="70.14" width="1" height="1"/><rect x="40.95" y="72.14" width="1" height="1"/><polygon points="41.45 75.53 42.94 72.94 39.95 72.94 41.45 75.53"/><path d="M0,15.93v-1H1v1Zm0-2v-1H1v1Zm0-2.05v-1H1v1Zm0-2V9.68a3.15,3.15,0,0,1,.12-.87,1.17,1.17,0,0,1,.06-.2l1,.34,0,.13a2.41,2.41,0,0,0-.08.6l-.51.11ZM1.55,8.22.77,7.56A3.24,3.24,0,0,1,1.7,6.8l.49.9A2.44,2.44,0,0,0,1.55,8.22ZM3,7.44l-.13-1a3.11,3.11,0,0,1,.43,0h.66v1H3.29A1.56,1.56,0,0,0,3,7.44Zm2,0v-1H6v1ZM7,7.41v-1H8v1Zm2.05,0v-1h1v1Zm2,0v-1h1v1Zm2,0v-1h1v1Zm2,0v-1h1v1Zm2.05,0v-1h1v1Zm2.05,0v-1h1v1Zm2.05,0v-1h1v1Zm2,0v-1h1v1Zm2.05,0v-1h1v1Zm2,0v-1h1v1Zm2.05,0v-1h1v1Zm2,0v-1h1v1Zm2.05,0v-1h1v1Zm2,0v-1h1v1Zm2,0v-1h1v1Zm2,0v-1h1v1Zm2,0v-1h1v1Zm2,0v-1h1v1Zm2.05,0v-1h1v1Zm2,0v-1h1v1Zm2,0v-1h1v1Zm31.84,8.24v-1h1v1ZM52.06,7.4v-1h1v1Zm2,0v-1h1v1Zm2,0v-1h1v1Zm2,0v-1h1v1Zm23.65,6.2v-1h1v1ZM60.25,7.39v-1h1v1Zm2,0v-1h1v1Zm2,0v-1h1v1Zm2,0v-1h1v1Zm15.46,4.16v-1h1v1ZM68.44,7.39v-1h1v1Zm2,0v-1h1v1Zm2.05,0v-1h1v1Zm9.31,2.14a2.3,2.3,0,0,0-.2-.81l.94-.42a3.4,3.4,0,0,1,.28,1.18ZM74.59,7.39v-1h1v1Zm2,0v-1h1v1Zm2.05,0v-1h1v1Zm2.5.65a2.17,2.17,0,0,0-.69-.47l.41-.94a3.41,3.41,0,0,1,1,.68Z"/><path d="M1,60.59v1H0v-1Zm0,2v1H0v-1Zm0,2v1H0v-1Zm-.52,2,.51.1a2.35,2.35,0,0,0,.08.6l0,.14-1,.33a1.17,1.17,0,0,1-.06-.2A3.15,3.15,0,0,1,0,66.84v-.1Zm1.68,2.08-.49.9A3.24,3.24,0,0,1,.77,69l.78-.66A2.25,2.25,0,0,0,2.19,68.82Zm1.1.29h.65v1H3.28a3.11,3.11,0,0,1-.43,0l.13-1Zm2.7,0v1H5v-1Zm2,0v1H7v-1Zm2,0v1h-1v-1Zm2.05,0v1h-1v-1Zm2,0v1h-1v-1Zm2.05,0v1h-1v-1Zm2,0v1h-1v-1Zm2.05,0v1h-1v-1Zm2.05,0v1h-1v-1Zm2.05,0v1h-1v-1Zm2,0v1h-1v-1Zm2.05,0v1h-1v-1Zm2,0v1h-1v-1Zm2.05,0v1h-1v-1Zm2,0v1h-1v-1Zm2,0v1h-1v-1Zm2,0v1h-1v-1Zm2,0v1h-1v-1Zm2.05,0v1h-1v-1Zm2,0v1h-1v-1Zm2,0v1h-1v-1Zm2.05,0v1H48v-1Zm2,0v1H50v-1Zm31.84-8.25v1h-1v-1ZM53.09,69.13v1h-1v-1Zm2,0v1h-1v-1Zm2,0v1h-1v-1Zm2,0v1h-1v-1Zm23.64-6.21v1h-1v-1ZM61.28,69.13v1h-1v-1Zm2,0v1h-1v-1Zm2.05,0v1h-1v-1Zm2,0v1h-1v-1ZM82.87,65v1h-1V65Zm-13.4,4.15v1h-1v-1Zm2,0v1h-1v-1Zm2,0v1h-1v-1Zm9.31-2.09a3.34,3.34,0,0,1-.28,1.17l-.94-.42a2.24,2.24,0,0,0,.2-.8Zm-7.26,2.09v1h-1v-1Zm2,0v1h-1v-1Zm2,0v1h-1v-1Zm2.2.07a3.23,3.23,0,0,1-1,.68L80.49,69a2.17,2.17,0,0,0,.69-.47Z"/></g></g></svg>