<svg xmlns="http://www.w3.org/2000/svg" viewBox="0 0 102.44 15.12"><defs><style>.cls-1{fill:#fff;}</style></defs><g id="Слой_2" data-name="Слой 2"><g id="Слой_1-2" data-name="Слой 1"><path class="cls-1" d="M72.74,7.56c0,3.11,1.23,4.83,4.35,4.83s4.34-1.72,4.34-4.83-1.22-4.83-4.34-4.83-4.35,1.72-4.35,4.83M77.09,0c5.19,0,8.17,2.18,8.17,7.56s-3,7.56-8.17,7.56S68.92,13,68.92,7.56,71.89,0,77.09,0Z"/><path class="cls-1" d="M3.82,7.56c0,3.11,1.23,4.83,4.35,4.83s4.34-1.72,4.34-4.83S11.29,2.73,8.17,2.73,3.82,4.45,3.82,7.56M8.17,0c5.19,0,8.17,2.18,8.17,7.56s-3,7.56-8.17,7.56S0,13,0,7.56,3,0,8.17,0Z"/><path class="cls-1" d="M19.37,14.81a1,1,0,0,1-1-1V1.26a1,1,0,0,1,.94-.95h3a2,2,0,0,1,1.4,1l6.13,9.41V1.24a1,1,0,0,1,.95-.93h1.75a.94.94,0,0,1,1,1v12.6a.94.94,0,0,1-1,1H29.2a2,2,0,0,1-1.47-1L22.11,5.18v8.68a1,1,0,0,1-.95,1Z"/><path class="cls-1" d="M37.39,14.81a1,1,0,0,1-1-1V1.26a1,1,0,0,1,1-1H39.3a1,1,0,0,1,1,1V6.11h2.18c1.19,0,2-.6,2.85-2.05l1.58-2.8a1.71,1.71,0,0,1,1.45-1h2.35c.52,0,.62.41.31,1l-2.2,4a4,4,0,0,1-2.62,2.24c1,.21,2,1.47,2.62,2.36l2.54,4c.33.54.18,1-.36,1H48.63a2.07,2.07,0,0,1-1.55-1L45.29,11C44.52,9.82,43.75,9,42.44,9H40.26v4.91a1,1,0,0,1-1,.93Z"/><path class="cls-1" d="M56.78,3.17V6.65H61.1c1.17,0,2.64-.41,2.64-1.74S62.27,3.17,61.1,3.17Zm0,6.34v4.35a.94.94,0,0,1-1,1H53.91a1,1,0,0,1-.95-1V1.26a.93.93,0,0,1,.93-.95h8.38c3,0,5.3,1.74,5.3,4.6,0,2.24-1.73,3.27-3.83,3.69.86.31,1.48,1,2.31,2.34l1.85,2.92c.33.54.19,1-.35,1H65.12a2.09,2.09,0,0,1-1.56-1l-1.73-2.69a3,3,0,0,0-2.58-1.66Z"/><path class="cls-1" d="M88.29,14.81a1,1,0,0,1-1-1V1.26a1,1,0,0,1,.94-.95h3a2,2,0,0,1,1.39,1l6.14,9.41V1.24a1,1,0,0,1,.95-.93h1.75a.94.94,0,0,1,1,1v12.6a.94.94,0,0,1-1,1H98.12a2,2,0,0,1-1.47-1L91,5.18v8.68a1,1,0,0,1-1,1Z"/></g></g></svg>