<svg xmlns="http://www.w3.org/2000/svg" viewBox="0 0 50.43 53.71"><defs><style>.cls-1{font-size:21.26px;fill:none;font-family:Gilroy-Bold, Gilroy Bold;font-weight:700;}</style></defs><g id="Слой_2" data-name="Слой 2"><g id="Слой_1-2" data-name="Слой 1"><path d="M47.38,53.71H3.05a3,3,0,0,1-3-3.05V16.84a3,3,0,0,1,3.05-3.05H16.53l0-3-4.67,0A3,3,0,0,1,8.86,7.66V3.05a3.06,3.06,0,0,1,3.05-3H38.52a3.06,3.06,0,0,1,3,3.05V7.66a3,3,0,0,1-3,3.05H33.91l0,3a.05.05,0,0,0,0,0H47.38a3,3,0,0,1,3,3.05V50.66A3,3,0,0,1,47.38,53.71ZM3.05,16.79,3,50.66l44.38.05,0-33.87-13.52-.05a3,3,0,0,1-3-3v-3a3,3,0,0,1,3-3h4.61l0-4.66L32.36,3H11.91l-.05,4.66,4.67,0a3.06,3.06,0,0,1,3,3.05v3a3.06,3.06,0,0,1-3,3Z"/><text class="cls-1" transform="translate(16.23 38.34)">кг</text></g></g></svg>