<svg xmlns="http://www.w3.org/2000/svg" viewBox="0 0 82.89 73.67"><g id="Слой_2" data-name="Слой 2"><g id="Слой_1-2" data-name="Слой 1"><path d="M42.29,41.55h0c-7.1,0-13.79-2.76-17.88-7.35l.76-.68c3.91,4.37,10.31,7,17.12,7h0c6.82,0,13-2.55,17-7l.77.69C55.88,38.87,49.4,41.55,42.29,41.55Z"/><polygon points="23.85 35.16 23.38 32.13 26.23 33.23 23.85 35.16"/><polygon points="60.58 35.15 61.09 32.13 58.22 33.2 60.58 35.15"/><path d="M11.2,73.67a4.1,4.1,0,0,1-4.09-4.11V23A4.08,4.08,0,0,1,10,19.06L70.29.19a4.11,4.11,0,0,1,5.33,3.92V50.69a4.09,4.09,0,0,1-2.88,3.92L12.44,73.48A4.11,4.11,0,0,1,11.2,73.67ZM71.52,3.08a1.06,1.06,0,0,0-.31,0L10.9,22a1,1,0,0,0-.72,1V69.56a1,1,0,0,0,.42.83,1,1,0,0,0,.92.15l60.3-18.87a1,1,0,0,0,.72-1V4.11a1,1,0,0,0-1-1Z"/><path d="M2.73,63.32l.17-1a2.85,2.85,0,0,0,.41,0h.53v1H3.31A3.68,3.68,0,0,1,2.73,63.32ZM1.6,62.89a3.28,3.28,0,0,1-.9-.8l.81-.63a2.21,2.21,0,0,0,.62.56Zm3.26.48v-1h1v1Zm2.05,0v-1h1v1ZM.15,61A3.28,3.28,0,0,1,0,60.08v-.22H1v.22a2.37,2.37,0,0,0,.09.65ZM0,58.83v-1H1v1Zm0-2v-1H1v1Zm0-2v-1H1v1Zm0-2.05v-1H1v1Zm45.8,10.66v-1h1v1ZM0,50.64v-1H1v1ZM47.86,63.35v-1h1v1Zm2,0v-1h1v1Zm2.05,0v-1h1v1ZM0,48.59v-1H1v1ZM54,63.35v-1h1v1Zm2.05,0v-1h1v1Zm2,0v-1h1v1Zm2,0v-1h1v1ZM0,46.55v-1H1v1ZM62.2,63.35v-1h1v1Zm2,0v-1h1v1Zm2,0v-1h1v1Zm2,0v-1h1v1ZM0,44.5v-1H1v1ZM70.39,63.34v-1h1v1Zm2,0v-1h1v1Zm2,0v-1h1v1ZM0,42.45v-1H1v1ZM76.53,63.34v-1h1v1Zm2,0v-1h1a2.49,2.49,0,0,0,.61-.08l.26,1a3.13,3.13,0,0,1-.86.12ZM0,40.4v-1H1v1ZM81.56,62.7,81,61.87a2.38,2.38,0,0,0,.57-.61l.86.55A3.31,3.31,0,0,1,81.56,62.7ZM0,38.36v-1H1v1ZM81.82,60.49a2.12,2.12,0,0,0,.05-.44v-.48h1v.48a3.39,3.39,0,0,1-.06.64ZM0,36.31v-1H1v1ZM81.87,58.55v-1h1v1ZM0,34.26v-1H1v1ZM81.86,56.5v-1h1v1ZM0,32.21v-1H1v1ZM81.86,54.45v-1h1v1ZM0,30.16v-1H1v1ZM81.86,52.41v-1h1v1ZM0,28.12v-1H1v1ZM81.86,50.36v-1h1v1ZM0,26.07V25H1v1ZM81.86,48.31v-1h1v1ZM0,24V23H1v1ZM81.86,46.26v-1h1v1ZM0,22V21H1v1ZM81.86,44.21v-1h1v1ZM0,19.93v-1H1v1ZM81.86,42.17v-1h1v1ZM0,17.88v-1H1v1ZM81.86,40.12v-1h1v1ZM0,15.83v-1H1v1ZM81.86,38.07v-1h1v1ZM0,13.78v-.1a3.15,3.15,0,0,1,.12-.87,1.17,1.17,0,0,1,.06-.2l1,.33,0,.14a2.35,2.35,0,0,0-.08.6l-.51.1ZM81.86,36V35h1v1ZM1.55,12.22l-.78-.66a3.24,3.24,0,0,1,.93-.76l.49.9A2.25,2.25,0,0,0,1.55,12.22ZM81.86,34V33h1v1ZM3,11.43l-.13-1a3.11,3.11,0,0,1,.43,0h.66v1H3.29Zm2,0v-1H6v1Zm76.9,20.52v-1h1v1ZM7,11.41v-1H8v1Zm2.05,0v-1h1v1Zm2,0v-1h1v1Zm2,0v-1h1v1Zm68.7,18.47v-1h1v1ZM15.2,11.41v-1h1v1Zm2.05,0v-1h1v1Zm2.05,0v-1h1v1Zm2.05,0v-1h1v1Zm60.5,16.42v-1h1v1ZM23.39,11.41v-1h1v1Zm2.05,0v-1h1v1Zm2,0v-1h1v1ZM81.85,25.79v-1h1v1ZM29.54,11.4v-1h1v1Zm2,0v-1h1v1Zm2.05,0v-1h1v1Zm2,0v-1h1v1ZM81.85,23.74v-1h1v1ZM37.73,11.4v-1h1v1Zm2,0v-1h1v1Zm2,0v-1h1v1Zm2,0v-1h1v1Zm38,10.29v-1h1v1ZM45.92,11.4v-1h1v1Zm2,0v-1h1v1Zm2,0v-1h1v1Zm31.84,8.24v-1h1v1ZM52.06,11.39v-1h1v1Zm2,0v-1h1v1Zm2,0v-1h1v1Zm2,0v-1h1v1Zm23.65,6.2v-1h1v1Zm-21.6-6.2v-1h1v1Zm2,0v-1h1v1Zm2,0v-1h1v1Zm2,0v-1h1v1Zm15.46,4.16v-1h1v1ZM68.44,11.39v-1h1v1Zm2,0v-1h1v1Zm2.05,0v-1h1v1Zm9.31,2.14a2.24,2.24,0,0,0-.2-.81l.94-.42a3.34,3.34,0,0,1,.28,1.17Zm-7.26-2.15v-1h1v1Zm2,0v-1h1v1Zm2.05,0v-1h1v1Zm2.5.66a2.17,2.17,0,0,0-.69-.47l.41-.94a3.23,3.23,0,0,1,1,.68Z"/></g></g></svg>